# xmcd
#
# Track frame offsets:
#	150
#	6106
#	15875
#	27651
#	37039
#	48134
#	56423
#	70700
#	82597
#	90811
#	101121
#	111932
#	119576
#	126619
#	134564
#	147652
#	156212
#	162760
#
# Disc length: 2277 seconds
#
# Revision: 2
# Processed by: cddbd v1.4PL0 Copyright (c) Steve Scherf et al.
# Submitted via: audiograbber 1.80
#
DISCID=ec08e312
DTITLE=Jim Reeves - The Country Album
DYEAR=1900
DGENRE=
TTITLE0=Have I told you lately that I love you
TTITLE1=Dear hearts and gentle people
TTITLE2=Your old love letters
TTITLE3=Home
TTITLE4=If heartache is the fashion
TTITLE5=The wind up doll
TTITLE6=Highway to nowhere
TTITLE7=I´ve lived a lot in my time
TTITLE8=Sweet evening breeze
TTITLE9=Just call me lonesome
TTITLE10=If you love more
TTITLE11=Oklahoma hills
TTITLE12=Everywhere you go
TTITLE13=Roly Holy
TTITLE14=How the world treating you
TTITLE15=If you where mine
TTITLE16=I´m beginning th forget you
TTITLE17=Till the end of the world
EXTD=
EXTT0=
EXTT1=
EXTT2=
EXTT3=
EXTT4=
EXTT5=
EXTT6=
EXTT7=
EXTT8=
EXTT9=
EXTT10=
EXTT11=
EXTT12=
EXTT13=
EXTT14=
EXTT15=
EXTT16=
EXTT17=
PLAYORDER=
